<svg width="836" height="177" viewBox="0 0 836 177" fill="none" xmlns="http://www.w3.org/2000/svg">
<g opacity="0.1" clip-path="url(#clip0_2102_4229)">
<path d="M44.9025 172.64L148.793 6.46126C150.531 3.62738 148.503 0 145.085 0H111.942C108.929 0 106.148 1.5303 104.525 4.0808L0.634653 170.26C-1.10362 173.094 0.92436 176.721 4.34295 176.721H37.4859C40.4989 176.721 43.2802 175.191 44.9025 172.64Z" fill="#A7A7A7"/>
<path d="M157.35 172.64L261.241 6.46126C262.979 3.62738 260.951 0 257.532 0H224.39C221.377 0 218.595 1.5303 216.973 4.0808L113.082 170.26C111.344 173.094 113.372 176.721 116.791 176.721H149.934C152.947 176.721 155.728 175.191 157.35 172.64Z" fill="#A7A7A7"/>
<path d="M269.799 172.641L373.689 6.46145C375.427 3.62756 373.399 0.000183105 369.981 0.000183105H336.838C333.825 0.000183105 331.044 1.53048 329.421 4.08098L225.531 170.26C223.792 173.094 225.82 176.721 229.239 176.721H262.382C265.395 176.721 268.176 175.191 269.799 172.641Z" fill="#A7A7A7"/>
<path d="M382.246 172.641L486.137 6.46145C487.875 3.62756 485.847 0.000183105 482.428 0.000183105H449.285C446.272 0.000183105 443.491 1.53048 441.869 4.08098L337.978 170.26C336.24 173.094 338.268 176.721 341.687 176.721H374.83C377.843 176.721 380.624 175.191 382.246 172.641Z" fill="#A7A7A7"/>
<path d="M494.695 172.641L598.585 6.46145C600.323 3.62756 598.295 0.000183105 594.877 0.000183105H561.734C558.721 0.000183105 555.94 1.53048 554.317 4.08098L450.427 170.26C448.688 173.094 450.716 176.721 454.135 176.721H487.278C490.291 176.721 493.072 175.191 494.695 172.641Z" fill="#A7A7A7"/>
<path d="M607.142 172.641L711.033 6.46145C712.771 3.62756 710.743 0.000183105 707.324 0.000183105H674.181C671.168 0.000183105 668.387 1.53048 666.765 4.08098L562.874 170.26C561.136 173.094 563.164 176.721 566.583 176.721H599.726C602.739 176.721 605.52 175.191 607.142 172.641Z" fill="#A7A7A7"/>
<path d="M719.59 172.641L823.481 6.46145C825.219 3.62756 823.191 0.000183105 819.772 0.000183105H786.629C783.616 0.000183105 780.835 1.53048 779.213 4.08098L675.322 170.26C673.584 173.094 675.612 176.721 679.03 176.721H712.173C715.186 176.721 717.968 175.191 719.59 172.641Z" fill="#A7A7A7"/>
<path d="M832.038 172.641L935.929 6.46145C937.667 3.62756 935.639 0.000183105 932.22 0.000183105H899.077C896.064 0.000183105 893.283 1.53048 891.661 4.08098L787.77 170.26C786.032 173.094 788.06 176.721 791.479 176.721H824.622C827.635 176.721 830.416 175.191 832.038 172.641Z" fill="#A7A7A7"/>
</g>
<defs>
<clipPath id="clip0_2102_4229">
<rect width="836" height="176.721" fill="white"/>
</clipPath>
</defs>
</svg>
