<svg width="201" height="103" viewBox="0 0 201 103" fill="none" xmlns="http://www.w3.org/2000/svg">
<g clip-path="url(#clip0_2102_4368)">
<path d="M164.888 83.8072H178.816V86.7803H173.446V102.67H170.291V86.7803H164.888V83.8072ZM181.165 102.637V83.8072H184.32V102.637H181.165ZM194.22 103C192.375 103 190.797 102.604 189.522 101.778C188.247 100.952 187.34 99.8287 186.837 98.3752L189.555 96.8226C190.327 98.9368 191.905 99.9939 194.321 99.9939C195.496 99.9939 196.368 99.7626 196.973 99.3332C197.577 98.8707 197.879 98.2761 197.879 97.5163C197.879 96.7565 197.543 96.195 196.905 95.7655C196.268 95.3691 195.127 94.9066 193.516 94.4111C191.871 93.9156 190.529 93.354 189.488 92.6934C188.247 91.8345 187.642 90.5792 187.642 88.8945C187.642 87.2097 188.247 85.9214 189.455 84.9304C190.629 83.9394 192.073 83.4438 193.818 83.4438C195.328 83.4438 196.67 83.8072 197.812 84.534C198.986 85.2607 199.859 86.2517 200.496 87.5731L197.845 89.0927C197.04 87.3419 195.697 86.4499 193.818 86.4499C192.912 86.4499 192.173 86.6812 191.636 87.1106C191.099 87.507 190.831 88.1016 190.831 88.7954C190.831 89.4891 191.099 90.0506 191.636 90.4801C192.173 90.8765 193.18 91.3059 194.657 91.7354C195.563 92.0327 196.1 92.2309 196.234 92.2639C196.469 92.33 196.939 92.5282 197.644 92.7925C198.214 93.0237 198.684 93.288 199.053 93.5522C200.463 94.6424 201.134 95.9307 201.033 97.4172C201.033 99.135 200.396 100.489 199.154 101.48C197.946 102.471 196.301 102.967 194.254 102.967L194.22 103Z" fill="#F8F8FA"/>
<path d="M61.619 100.622L121.795 3.76588C122.802 2.11418 121.627 0 119.647 0H100.45C98.7045 0 97.0935 0.891918 96.1538 2.37845L35.978 99.2341C34.9711 100.886 36.1458 103 38.1259 103H57.3231C59.0683 103 60.6792 102.108 61.619 100.622Z" fill="#B2F828"/>
<path d="M84.0385 0H22.5202C20.775 0 19.164 0.891918 18.2243 2.37845L9.43117 16.55C8.42432 18.2017 9.59898 20.3159 11.5791 20.3159H49.403L0.369559 99.2341C-0.637287 100.886 0.537366 103 2.5175 103H21.7147C23.4599 103 25.0708 102.108 26.0106 100.622L86.1864 3.76588C87.1932 2.11418 86.0186 0 84.0385 0Z" fill="#B2F828"/>
<path d="M194.288 0H137.401C135.656 0 134.045 0.891918 133.105 2.37845L72.9291 99.2341C71.9223 100.886 73.0969 103 75.0771 103H133.81C135.555 103 137.166 102.108 138.106 100.622L146.932 86.45C147.939 84.7983 146.764 82.6841 144.784 82.6841H109.746L148.443 20.3159H183.313C185.058 20.3159 186.669 19.424 187.609 17.9375L196.436 3.76588C197.442 2.11418 196.268 0 194.288 0Z" fill="#B2F828"/>
</g>
<defs>
<clipPath id="clip0_2102_4368">
<rect width="201" height="103" fill="white"/>
</clipPath>
</defs>
</svg>
