<svg width="455" height="232" viewBox="0 0 455 232" fill="none" xmlns="http://www.w3.org/2000/svg">
<g clip-path="url(#clip0_2102_4067)">
<path d="M373.253 188.77H404.782V195.466H392.626V231.256H385.485V195.466H373.253V188.77ZM410.1 231.181V188.77H417.242V231.181H410.1ZM439.653 232C435.475 232 431.904 231.107 429.017 229.247C426.13 227.387 424.079 224.857 422.939 221.583L429.093 218.086C430.841 222.848 434.411 225.229 439.881 225.229C442.54 225.229 444.516 224.708 445.883 223.741C447.251 222.699 447.934 221.36 447.934 219.648C447.934 217.937 447.175 216.672 445.731 215.705C444.288 214.812 441.705 213.77 438.058 212.654C434.335 211.538 431.296 210.273 428.941 208.785C426.13 206.851 424.763 204.023 424.763 200.228C424.763 196.434 426.13 193.532 428.865 191.3C431.524 189.067 434.791 187.951 438.742 187.951C442.161 187.951 445.199 188.77 447.783 190.407C450.442 192.044 452.417 194.276 453.86 197.252L447.859 200.675C446.035 196.731 442.996 194.722 438.742 194.722C436.691 194.722 435.019 195.243 433.804 196.21C432.588 197.103 431.98 198.443 431.98 200.005C431.98 201.568 432.588 202.833 433.804 203.8C435.019 204.693 437.298 205.66 440.641 206.627C442.692 207.297 443.908 207.743 444.212 207.818C444.744 207.967 445.807 208.413 447.403 209.008C448.694 209.529 449.758 210.124 450.594 210.72C453.784 213.175 455.304 216.077 455.076 219.425C455.076 223.294 453.632 226.345 450.821 228.577C448.086 230.809 444.364 231.926 439.729 231.926L439.653 232Z" fill="#202020"/>
<path d="M139.486 226.643L275.704 8.48236C277.984 4.76203 275.325 0 270.842 0H227.386C223.435 0 219.789 2.00898 217.661 5.35728L81.4425 223.518C79.1633 227.238 81.8224 232 86.3047 232H129.761C133.712 232 137.358 229.991 139.486 226.643Z" fill="#B2F828"/>
<path d="M190.236 0H50.978C47.0274 0 43.3807 2.00898 41.2535 5.35728L21.3487 37.2777C19.0695 40.9981 21.7285 45.7601 26.2109 45.7601H111.832L0.836048 223.518C-1.44313 227.238 1.21591 232 5.6983 232H49.1546C53.1052 232 56.7519 229.991 58.8791 226.643L195.098 8.48236C197.377 4.76203 194.718 0 190.236 0Z" fill="#B2F828"/>
<path d="M439.805 0H311.032C307.081 0 303.435 2.00898 301.307 5.35728L165.088 223.518C162.809 227.238 165.468 232 169.951 232H302.903C306.853 232 310.5 229.991 312.627 226.643L332.608 194.722C334.887 191.002 332.228 186.24 327.746 186.24H248.43L336.027 45.7601H414.962C418.913 45.7601 422.56 43.7511 424.687 40.4028L444.668 8.48236C446.947 4.76203 444.288 0 439.805 0Z" fill="#B2F828"/>
</g>
<defs>
<clipPath id="clip0_2102_4067">
<rect width="455" height="232" fill="white"/>
</clipPath>
</defs>
</svg>
