<svg width="109" height="55" viewBox="0 0 109 55" fill="none" xmlns="http://www.w3.org/2000/svg">
<path d="M88.5957 44.7514H96.0794V46.339H93.1941V54.8236H91.499V46.339H88.5957V44.7514ZM97.3417 54.8059V44.7514H99.0368V54.8059H97.3417ZM104.357 55C103.365 55 102.517 54.7883 101.832 54.3473C101.147 53.9063 100.66 53.3066 100.389 52.5304L101.85 51.7014C102.265 52.8303 103.112 53.3948 104.411 53.3948C105.042 53.3948 105.511 53.2713 105.835 53.042C106.16 52.795 106.322 52.4775 106.322 52.0718C106.322 51.6661 106.142 51.3662 105.799 51.1369C105.457 50.9252 104.843 50.6783 103.978 50.4137C103.094 50.1491 102.373 49.8492 101.814 49.4964C101.147 49.0378 100.822 48.3675 100.822 47.4679C100.822 46.5683 101.147 45.8803 101.796 45.3511C102.427 44.822 103.202 44.5574 104.14 44.5574C104.952 44.5574 105.673 44.7514 106.286 45.1395C106.917 45.5275 107.386 46.0567 107.729 46.7623L106.304 47.5737C105.871 46.6388 105.15 46.1626 104.14 46.1626C103.653 46.1626 103.257 46.286 102.968 46.5154C102.68 46.727 102.535 47.0445 102.535 47.415C102.535 47.7854 102.68 48.0853 102.968 48.3146C103.257 48.5263 103.798 48.7556 104.591 48.9849C105.078 49.1436 105.366 49.2495 105.439 49.2671C105.565 49.3024 105.817 49.4082 106.196 49.5494C106.503 49.6728 106.755 49.8139 106.953 49.9551C107.711 50.5372 108.071 51.2251 108.017 52.0189C108.017 52.9361 107.675 53.6594 107.007 54.1885C106.358 54.7177 105.475 54.9823 104.375 54.9823L104.357 55Z" fill="white"/>
<path d="M33.1076 53.7299L65.4409 2.0109C65.9819 1.12893 65.3507 0 64.2868 0H53.9718C53.0341 0 52.1685 0.476267 51.6636 1.27004L19.3303 52.9891C18.7893 53.8711 19.4205 55 20.4844 55H30.7994C31.7371 55 32.6027 54.5237 33.1076 53.7299Z" fill="#B2F828"/>
<path d="M45.1539 0H12.0993C11.1616 0 10.296 0.476267 9.79111 1.27004L5.06645 8.8374C4.52545 9.71937 5.15661 10.8483 6.22056 10.8483H26.5438L0.197519 52.9891C-0.343473 53.8711 0.287685 55 1.35164 55H11.6665C12.6043 55 13.4699 54.5237 13.9748 53.7299L46.3081 2.0109C46.849 1.12893 46.2179 0 45.1539 0Z" fill="#B2F828"/>
<path d="M104.392 0H73.8263C72.8886 0 72.023 0.476267 71.5181 1.27004L39.1848 52.9891C38.6438 53.8711 39.275 55 40.3389 55H71.8968C72.8345 55 73.7001 54.5237 74.205 53.7299L78.9477 46.1626C79.4887 45.2806 78.8576 44.1517 77.7936 44.1517H58.9671L79.7592 10.8483H98.4956C99.4333 10.8483 100.299 10.372 100.804 9.57825L105.546 2.0109C106.087 1.12893 105.456 0 104.392 0Z" fill="#B2F828"/>
</svg>
